<svg width="512" height="512" viewBox="0 0 512 512" xmlns="http://www.w3.org/2000/svg">
  <!-- Background gradient -->
  <defs>
    <linearGradient id="bg" x1="0%" y1="0%" x2="100%" y2="100%">
      <stop offset="0%" style="stop-color:#2563eb;stop-opacity:1" />
      <stop offset="100%" style="stop-color:#1e40af;stop-opacity:1" />
    </linearGradient>
  </defs>
  
  <!-- Background -->
  <rect width="512" height="512" rx="80" fill="url(#bg)"/>
  
  <!-- Swimmer icon -->
  <circle cx="180" cy="150" r="20" fill="white" opacity="0.9"/>
  <path d="M 160 180 Q 180 170 200 180 L 220 200 L 180 210 L 140 200 Z" fill="white" opacity="0.9"/>
  
  <!-- Cyclist icon -->
  <circle cx="256" cy="250" r="25" fill="white"/>
  <circle cx="220" cy="320" r="35" fill="none" stroke="white" stroke-width="8"/>
  <circle cx="292" cy="320" r="35" fill="none" stroke="white" stroke-width="8"/>
  <path d="M 256 250 L 256 290 M 256 270 L 220 285 M 256 270 L 292 285" stroke="white" stroke-width="8" stroke-linecap="round"/>
  
  <!-- Runner icon -->
  <circle cx="350" cy="390" r="18" fill="white" opacity="0.9"/>
  <path d="M 350 410 L 350 450 M 350 430 L 330 460 M 350 430 L 370 460 M 350 420 L 330 410 M 350 420 L 365 400" stroke="white" stroke-width="7" stroke-linecap="round" opacity="0.9"/>
  
  <!-- "3" number -->
  <text x="256" y="140" font-family="Arial, sans-serif" font-size="100" font-weight="bold" fill="white" text-anchor="middle">3</text>
</svg>
